<svg xmlns="http://www.w3.org/2000/svg" width="24" height="24">
    <path data-name="사각형 3591" style="fill:transparent" d="M0 0h24v24H0z"/>
    <path d="M6.634 16.332a1.661 1.661 0 0 1-1.173-.478 1.629 1.629 0 0 1-.485-1.154h3.318a1.629 1.629 0 0 1-.486 1.155 1.662 1.662 0 0 1-1.174.477zm5.806-3.266H.829a.84.84 0 0 1-.587-.24.815.815 0 0 1-.242-.577v-.482a.817.817 0 0 1 .24-.567l.688-.678a2.448 2.448 0 0 0 .73-1.731V6.533a4.882 4.882 0 0 1 .995-2.94l.746-.98a2.5 2.5 0 0 1 .878-.722 2.538 2.538 0 0 1 1.113-.259h.414V.409A.4.4 0 0 1 5.927.12.421.421 0 0 1 6.22 0h.829a.421.421 0 0 1 .293.12.4.4 0 0 1 .122.289v1.224h.414a2.538 2.538 0 0 1 1.113.259 2.5 2.5 0 0 1 .878.722l.746.98a4.882 4.882 0 0 1 .995 2.94v2.253a2.448 2.448 0 0 0 .73 1.731l.688.678a.817.817 0 0 1 .24.572v.482a.815.815 0 0 1-.243.577.84.84 0 0 1-.585.239z" transform="translate(5.365 4)" style="fill:#111"/>
</svg>
