<svg xmlns="http://www.w3.org/2000/svg" width="24" height="24">
    <path data-name="사각형 3592" style="fill:transparent" d="M0 0h24v24H0z"/>
    <path d="M10.9 16H6.046a3.566 3.566 0 0 1-3.119-1.831L.448 9.725a3.546 3.546 0 0 1 0-3.45l2.478-4.444A3.566 3.566 0 0 1 6.046 0H10.9a3.568 3.568 0 0 1 3.12 1.831l2.478 4.444a3.552 3.552 0 0 1 0 3.45l-2.478 4.444A3.568 3.568 0 0 1 10.9 16zM8.471 5.333a2.681 2.681 0 0 0-1.892.781 2.681 2.681 0 1 0 1.892-.781z" transform="translate(4 4)" style="fill:#111"/>
</svg>
